<?xml version="1.0" encoding="utf-8"?>
<!-- Generator: Adobe Illustrator 25.2.1, SVG Export Plug-In . SVG Version: 6.00 Build 0)  -->
<svg version="1.1" id="Layer_1" xmlns="http://www.w3.org/2000/svg" xmlns:xlink="http://www.w3.org/1999/xlink" x="0px" y="0px"
	 viewBox="0 0 530.28 111.89" style="enable-background:new 0 0 530.28 111.89;" xml:space="preserve">
<style type="text/css">
	.st0{fill:#6E6F71;}
	.st1{font-family:'Impact';}
	.st2{font-size:87.7821px;}
	.st3{fill:#9FBEA1;}
	.st4{font-family:'AestheticViolet';}
	.st5{fill:#E6E7E7;}
	.st6{fill:#F68B66;}
	.st7{fill:#F16565;}
	.st8{fill:#FABE68;}
</style>
<text transform="matrix(1 0 0 1 122.7324 96.8535)" class="st0 st1 st2">Game</text>
<text transform="matrix(1 0 0 1 334.9775 91.9844)" class="st3 st4 st2">Store</text>
<g>
	<path class="st5" d="M56.92,3.3C27.73,3.3,4,27.04,4,56.22s23.73,52.91,52.92,52.91c29.18,0,52.91-23.73,52.91-52.91
		S86.1,3.3,56.92,3.3z M56.92,104.4c-26.57,0-48.19-21.61-48.19-48.18S30.35,8.03,56.92,8.03c26.56,0,48.18,21.62,48.18,48.19
		S83.48,104.4,56.92,104.4z"/>
	<g>
		<polygon class="st6" points="44.35,54.05 36.24,62.14 14.32,62.14 14.32,45.94 36.24,45.94 		"/>
		<polygon class="st7" points="62.84,13.62 62.84,35.55 54.75,43.65 46.64,35.55 46.64,13.62 		"/>
		<polygon class="st5" points="49.26,57.03 39.81,66.49 15.97,66.49 14.32,64.85 37.37,64.85 47.21,55 		"/>
		<polygon class="st5" points="67.19,15.27 67.19,39.11 57.73,48.56 55.7,46.52 65.55,36.67 65.55,13.62 		"/>
		<polygon class="st8" points="62.84,72.54 62.84,94.47 46.64,94.47 46.64,72.54 54.75,64.43 		"/>
		<polygon class="st3" points="95.16,45.94 95.16,62.14 73.23,62.14 65.13,54.05 73.23,45.94 		"/>
		<polygon class="st5" points="65.55,73.33 67.19,74.97 67.19,98.81 48.28,98.81 46.64,97.16 65.55,97.16 		"/>
		<polygon class="st5" points="99.51,47.58 99.51,66.49 75.67,66.49 74.03,64.85 97.86,64.85 97.86,45.94 		"/>
	</g>
</g>
</svg>
